PathFileType	4	(X/Y/Z)	C:/Users/opensim2020/Desktop/walking_exp_matlab/subject01_walking13_straight_03.trc																																																																																																																												
DataRate	CameraRate	NumFrames	NumMarkers	Units	OrigDataRate	OrigDataStartFrame	OrigNumFrames																																																																																																																								
100	100	4	42	mm	100	1599	128																																																																																																																								
Frame#	Time	LFHD			RFHD			LBHD			RBHD			C7			T10			CLAV			STRN			RBAK			LSHO			LUPA			LELB			LFRM			LWRA			LWRB			LFIN			RSHO			RUPA			RELB			RFRM			RWRA			RWRB			RFIN			LASI			RASI			LPSI			RPSI			LTHI			LKNE			LTIB			LANK			LHEE			LTOE			RTHI			RKNE			RTIB			RANK			RHEE			RTOE			*39			*40			*41		
		X1	Y1	Z1	X2	Y2	Z2	X3	Y3	Z3	X4	Y4	Z4	X5	Y5	Z5	X6	Y6	Z6	X7	Y7	Z7	X8	Y8	Z8	X9	Y9	Z9	X10	Y10	Z10	X11	Y11	Z11	X12	Y12	Z12	X13	Y13	Z13	X14	Y14	Z14	X15	Y15	Z15	X16	Y16	Z16	X17	Y17	Z17	X18	Y18	Z18	X19	Y19	Z19	X20	Y20	Z20	X21	Y21	Z21	X22	Y22	Z22	X23	Y23	Z23	X24	Y24	Z24	X25	Y25	Z25	X26	Y26	Z26	X27	Y27	Z27	X28	Y28	Z28	X29	Y29	Z29	X30	Y30	Z30	X31	Y31	Z31	X32	Y32	Z32	X33	Y33	Z33	X34	Y34	Z34	X35	Y35	Z35	X36	Y36	Z36	X37	Y37	Z37	X38	Y38	Z38	X39	Y39	Z39	X40	Y40	Z40	X41	Y41	Z41	X42	Y42	Z42
																																																																																																																															
1	0	-744.28802	1652.87146	-1064.82617	-724.40894	1661.36011	-953.95746	-851.40845	1590.42371	-1049.45178	-832.62512	1597.13318	-930.57629	-860.2616	1412.55994	-1002.90729	-908.04828	1121.50696	-983.55988	-713.16583	1343.58569	-1005.45673	-678.229	1186.2655	-1003.04474	-917.65686	1227.89392	-908.73499	-783.32855	1369.18372	-1164.68701	-856.362	1194.85852	-1238.18262	-904.32349	1051.70178	-1229.51294	-895.69574	936.50336	-1249.61414	-845.7561	806.61041	-1225.80859	-901.48792	813.73993	-1248.62207	-872.1532	734.21936	-1255.16211	-768.94775	1380.0354	-853.07227	-815.97565	1194.87085	-730.06018	-808.62836	1067.41284	-710.7959	-717.18298	979.21942	-712.80634	-599.99811	935.50726	-778.17902	-619.29559	908.57721	-731.03412	-543.40576	881.84283	-749.41748	-726.91162	915.97253	-1083.20276	-746.78381	910.81384	-865.99677	-917.88068	923.85712	-1050.2168	-929.46368	932.04382	-907.69385	-682.86243	606.23816	-1176.08289	-644.84351	479.73044	-1162.04053	-630.21124	295.73434	-1185.07544	-560.06836	78.11381	-1152.77332	-585.81915	33.27511	-1096.19299	-411.42435	91.31909	-1164.37903	-872.68518	588.341	-827.29999	-905.5119	431.02356	-858.09711	-1007.58752	285.96487	-854.59711	-1094.96021	98.49368	-909.00922	-1155.6499	76.94702	-957.03711	-970.27802	29.19473	-922.16144	-742.80811	1692.68237	-974.34961	1972.9834	1024.12598	-3102.40381	2013.06824	1022.32593	-3138.59863
2	0.01	-733.68927	1652.01978	-1068.59058	-713.36359	1661.31287	-957.18213	-840.75629	1589.60303	-1053.10767	-822.09949	1596.6604	-934.24121	-849.0968	1411.45947	-1006.5636	-896.21277	1120.44116	-986.95288	-701.73419	1342.81677	-1008.47284	-666.49475	1185.67004	-1005.22351	-906.60815	1226.87012	-912.43933	-770.89783	1367.80688	-1167.84387	-843.1145	1193.04358	-1241.44043	-891.10181	1050.09778	-1232.45605	-883.41101	935.03607	-1252.43445	-835.00195	804.51953	-1228.2301	-890.52753	812.12048	-1251.25574	-862.16504	732.38623	-1257.58899	-758.70892	1379.20569	-856.25842	-805.78253	1194.33447	-732.98682	-798.05243	1066.96899	-713.36963	-706.52692	978.82806	-714.92682	-589.11169	934.97919	-779.93713	-608.47174	908.33057	-732.74182	-532.64618	881.51074	-750.81104	-714.25739	914.81232	-1085.21399	-734.97229	910.2132	-868.08435	-905.31561	922.87677	-1053.47241	-917.48608	931.37878	-911.01788	-669.45563	605.50671	-1176.95435	-632.96301	478.46887	-1162.86438	-619.92181	293.66034	-1184.45093	-550.82648	76.02471	-1151.25684	-576.52405	31.54943	-1094.28491	-402.55856	88.28822	-1163.53821	-862.39313	588.47272	-828.5202	-896.11035	430.94037	-858.45221	-1001.0351	287.94727	-854.82196	-1092.54504	101.85828	-908.07513	-1153.82068	82.19406	-955.9325	-969.94043	29.1623	-921.97754	-732.36304	1692.11707	-978.23248	1972.92004	1024.13196	-3102.54785	2013.08093	1022.29938	-3138.57202
3	0.02	-722.99353	1651.21448	-1072.49915	-703.49536	1660.30078	-961.77325	-830.11786	1588.76428	-1056.96179	-811.58008	1596.21594	-938.12653	-838.10834	1410.43884	-1010.32733	-884.17017	1119.42676	-990.26733	-690.32727	1342.14624	-1011.18683	-654.52325	1185.11792	-1007.56647	-895.15381	1225.62585	-916.27771	-758.3327	1366.46814	-1170.96948	-829.63928	1191.29407	-1244.87378	-877.55597	1048.552	-1235.50598	-870.68542	933.5611	-1255.3656	-823.60321	802.56128	-1230.79675	-878.93549	810.76727	-1254.14331	-851.42499	730.8606	-1260.75867	-748.19922	1378.67712	-859.27411	-795.68677	1194.03247	-735.99481	-787.70209	1066.61841	-716.09894	-696.2019	978.36279	-717.0274	-578.69708	934.1438	-781.46216	-598.75793	907.47992	-734.38104	-522.73804	880.70612	-752.14136	-701.33997	913.91089	-1087.56714	-722.74286	909.61157	-870.35339	-892.59979	922.12494	-1056.47009	-905.10321	930.68481	-914.23737	-655.3606	605.04297	-1177.17505	-620.53113	477.46759	-1163.17212	-610.51575	291.40594	-1183.57629	-544.17639	73.1471	-1149.34204	-570.89673	30.34377	-1092.69775	-395.68753	83.7153	-1162.55566	-851.4693	588.57672	-829.81964	-886.17462	430.94287	-858.70441	-994.2417	290.01617	-854.92291	-1089.80896	105.61601	-907.00824	-1151.08289	87.32809	-954.495	-969.77393	29.1994	-921.88544	-721.86481	1691.28918	-982.50018	1973.00781	1024.10461	-3102.3501	2013.05688	1022.36517	-3138.62085
4	0.03	-712.25464	1650.41382	-1076.46045	-692.31561	1660.48865	-964.99127	-819.33044	1587.94775	-1060.96436	-801.06079	1595.85254	-942.11926	-826.54828	1409.17065	-1014.15692	-871.8028	1118.28772	-993.67023	-678.90222	1341.61328	-1014.02515	-642.34479	1184.73364	-1010.01819	-883.77435	1224.54199	-920.12506	-745.88708	1365.35315	-1174.37354	-815.99921	1189.53955	-1248.21362	-863.65179	1047.03687	-1238.66589	-857.41571	932.14197	-1258.35754	-811.53125	800.73907	-1233.50342	-866.59833	809.46179	-1257.38757	-839.73151	729.29028	-1263.7522	-737.62189	1378.50793	-862.44543	-785.71185	1193.77246	-739.16699	-777.53113	1066.35815	-718.979	-686.41003	977.75598	-719.2746	-568.70868	932.96851	-782.89703	-589.07532	906.56537	-735.80042	-512.83813	879.28967	-752.92328	-688.18445	913.07532	-1090.10425	-710.28284	909.01581	-872.78607	-879.5788	921.27112	-1059.46375	-892.41412	929.98627	-917.33057	-640.93427	604.76526	-1177.17969	-607.7699	476.58203	-1163.06982	-601.80542	288.87466	-1182.46558	-539.28088	70.45804	-1147.32715	-567.50421	29.77808	-1091.13733	-391.13364	77.88268	-1161.57532	-840.20245	588.50519	-831.13611	-875.50446	430.60773	-859.1637	-986.70795	292.09335	-855.07288	-1086.98474	109.8809	-905.86768	-1148.64282	93.69074	-953.11493	-969.20184	29.03706	-921.72815	-711.26428	1690.66748	-986.69592	1972.87219	1023.97327	-3102.72729	2013.10938	1022.52136	-3138.23462
